<svg xmlns="http://www.w3.org/2000/svg" viewBox="364 257 295 509">
  <path d="M 394 565 378 589 367 619 364 639 366 674 374 700 386 722 401 740 429 761 440 766 582 766 614 747 640 717 653 690 658 668 659 638 653 608 645 589 630 566 615 550 594 534 430 534 408 550 Z" fill="black" />
  <path d="M 450 514 450 515 573 515 569 505 569 495 570 494 569 492 453 492 453 494 454 495 454 504 453 505 452 511 Z" fill="black" />
  <path d="M 559 325 557 325 537 348 525 367 515 389 507 413 507 417 505 421 504 431 502 437 501 451 500 452 500 464 499 465 499 473 500 474 501 473 555 473 556 474 560 467 566 447 568 430 569 429 569 422 570 421 570 380 569 379 569 370 567 363 567 357 Z" fill="black" />
  <path d="M 465 318 459 338 459 343 457 347 455 367 454 368 454 377 453 378 453 417 454 418 454 428 455 429 455 435 456 436 456 441 457 442 459 455 466 473 469 474 470 473 479 473 480 474 481 473 482 448 483 447 483 440 484 439 484 432 486 427 486 422 496 388 505 368 505 366 499 354 489 340 471 321 467 318 Z" fill="black" />
  <path d="M 511 257 508 261 508 262 506 264 506 265 504 267 504 268 502 270 493 288 492 293 490 296 490 298 488 302 488 305 487 306 486 311 500 325 500 326 504 330 504 331 510 338 510 339 514 344 515 347 516 347 519 343 519 342 528 331 528 330 534 324 534 323 536 321 537 321 538 319 538 316 537 315 537 311 536 310 536 307 535 306 535 302 534 301 534 299 533 298 532 293 530 290 530 288 526 281 526 279 523 275 521 270 517 265 516 262 513 259 513 258 Z" fill="black" />
</svg>